<svg width="24" height="25" viewBox="0 0 24 25" fill="none" xmlns="http://www.w3.org/2000/svg">
<path fill-rule="evenodd" clip-rule="evenodd" d="M7.465 1.61776C8.638 1.56376 9.012 1.55176 12 1.55176C14.988 1.55176 15.362 1.56476 16.534 1.61776C17.706 1.67076 18.506 1.85776 19.206 2.12876C19.939 2.40576 20.604 2.83876 21.154 3.39876C21.714 3.94776 22.146 4.61176 22.422 5.34576C22.694 6.04576 22.88 6.84576 22.934 8.01576C22.988 9.19076 23 9.56476 23 12.5518C23 15.5398 22.987 15.9138 22.934 17.0868C22.881 18.2568 22.694 19.0568 22.422 19.7568C22.146 20.4909 21.7133 21.156 21.154 21.7058C20.604 22.2658 19.939 22.6978 19.206 22.9738C18.506 23.2458 17.706 23.4318 16.536 23.4858C15.362 23.5398 14.988 23.5518 12 23.5518C9.012 23.5518 8.638 23.5388 7.465 23.4858C6.295 23.4328 5.495 23.2458 4.795 22.9738C4.06092 22.6977 3.39582 22.265 2.846 21.7058C2.28638 21.1564 1.85331 20.4916 1.577 19.7578C1.306 19.0578 1.12 18.2578 1.066 17.0878C1.012 15.9128 1 15.5388 1 12.5518C1 9.56376 1.013 9.18976 1.066 8.01776C1.119 6.84576 1.306 6.04576 1.577 5.34576C1.85372 4.61184 2.28712 3.94707 2.847 3.39776C3.39604 2.83826 4.06047 2.4052 4.794 2.12876C5.494 1.85776 6.294 1.67176 7.464 1.61776H7.465ZM16.445 3.59776C15.285 3.54476 14.937 3.53376 12 3.53376C9.063 3.53376 8.715 3.54476 7.555 3.59776C6.482 3.64676 5.9 3.82576 5.512 3.97676C4.999 4.17676 4.632 4.41376 4.247 4.79876C3.88205 5.15381 3.60118 5.58604 3.425 6.06376C3.274 6.45176 3.095 7.03376 3.046 8.10676C2.993 9.26676 2.982 9.61476 2.982 12.5518C2.982 15.4888 2.993 15.8368 3.046 16.9968C3.095 18.0698 3.274 18.6518 3.425 19.0398C3.601 19.5168 3.882 19.9498 4.247 20.3048C4.602 20.6698 5.035 20.9508 5.512 21.1268C5.9 21.2778 6.482 21.4568 7.555 21.5058C8.715 21.5588 9.062 21.5698 12 21.5698C14.938 21.5698 15.285 21.5588 16.445 21.5058C17.518 21.4568 18.1 21.2778 18.488 21.1268C19.001 20.9268 19.368 20.6898 19.753 20.3048C20.118 19.9498 20.399 19.5168 20.575 19.0398C20.726 18.6518 20.905 18.0698 20.954 16.9968C21.007 15.8368 21.018 15.4888 21.018 12.5518C21.018 9.61476 21.007 9.26676 20.954 8.10676C20.905 7.03376 20.726 6.45176 20.575 6.06376C20.375 5.55076 20.138 5.18376 19.753 4.79876C19.3979 4.43383 18.9657 4.15297 18.488 3.97676C18.1 3.82576 17.518 3.64676 16.445 3.59776ZM10.595 15.9428C11.3797 16.2694 12.2534 16.3135 13.0669 16.0675C13.8805 15.8215 14.5834 15.3007 15.0556 14.594C15.5278 13.8873 15.7401 13.0386 15.656 12.1929C15.572 11.3471 15.197 10.5567 14.595 9.95676C14.2112 9.57323 13.7472 9.27957 13.2363 9.0969C12.7255 8.91424 12.1804 8.84712 11.6405 8.90037C11.1006 8.95363 10.5792 9.12594 10.1138 9.40489C9.64845 9.68384 9.25074 10.0625 8.9493 10.5136C8.64786 10.9647 8.45019 11.477 8.37052 12.0137C8.29084 12.5504 8.33115 13.0981 8.48854 13.6173C8.64593 14.1365 8.91648 14.6144 9.28072 15.0165C9.64496 15.4186 10.0938 15.7349 10.595 15.9428ZM8.002 8.55376C8.52702 8.02873 9.15032 7.61226 9.8363 7.32812C10.5223 7.04398 11.2575 6.89773 12 6.89773C12.7425 6.89773 13.4777 7.04398 14.1637 7.32812C14.8497 7.61226 15.473 8.02873 15.998 8.55376C16.523 9.07878 16.9395 9.70208 17.2236 10.3881C17.5078 11.074 17.654 11.8093 17.654 12.5518C17.654 13.2943 17.5078 14.0295 17.2236 14.7155C16.9395 15.4014 16.523 16.0247 15.998 16.5498C14.9377 17.6101 13.4995 18.2058 12 18.2058C10.5005 18.2058 9.06234 17.6101 8.002 16.5498C6.94166 15.4894 6.34597 14.0513 6.34597 12.5518C6.34597 11.0522 6.94166 9.61409 8.002 8.55376ZM18.908 7.73976C19.0381 7.61703 19.1423 7.46944 19.2143 7.30573C19.2863 7.14202 19.3248 6.96553 19.3274 6.78669C19.33 6.60785 19.2967 6.43031 19.2295 6.26457C19.1622 6.09883 19.0624 5.94827 18.936 5.8218C18.8095 5.69533 18.6589 5.59552 18.4932 5.52828C18.3275 5.46104 18.1499 5.42773 17.9711 5.43034C17.7922 5.43295 17.6157 5.47141 17.452 5.54345C17.2883 5.6155 17.1407 5.71965 17.018 5.84976C16.7793 6.10279 16.6486 6.43888 16.6537 6.78669C16.6588 7.1345 16.7992 7.46664 17.0452 7.7126C17.2911 7.95856 17.6233 8.09899 17.9711 8.10406C18.3189 8.10913 18.655 7.97845 18.908 7.73976Z" fill="#313131"/>
</svg>
